<svg xmlns="http://www.w3.org/2000/svg" viewBox="0 0 32 32"><rect width="32" height="32" rx="8" fill="#1F2937"/><g transform="translate(3.5 5) scale(0.038) translate(-515 -228)"><path fill="#2B3442" d="m519.26 243.39l-3.76 3.46c-0.47 346.6-0.21 426.61 0.43 433.65 0.55 6.05 2.19 15.05 3.64 20 1.46 4.95 4.24 12.38 6.19 16.5 1.94 4.13 4.3 8.63 5.23 10 0.93 1.38 2.88 4.3 4.32 6.5 1.44 2.2 6.12 7.64 10.4 12.09 4.29 4.45 11.05 10.19 15.04 12.75 3.99 2.56 9.84 5.95 13 7.52 3.16 1.57 8.67 3.78 12.25 4.91 3.58 1.12 9.88 2.56 14 3.19 4.13 0.64 14.92 1.39 24 1.68 9.08 0.29 18.75 0.25 21.5-0.1 2.75-0.35 6.13-1.49 7.5-2.53l2.5-1.89c1.01-73.53 1.31-79.2 2.83-83.12 0.96-2.47 2.93-6.3 4.37-8.5 1.43-2.2 12-13.22 23.47-24.5l20.86-20.5c-19.11-19.37-39.85-40.52-58.41-59.5l-33.76-34.5c47.1-47.02 61.23-60.3 64.36-62.21 2.91-1.76 7.98-3.9 11.28-4.75 3.3-0.85 8.7-1.54 12-1.52 3.3 0.02 8.02 0.49 10.5 1.06 2.48 0.57 7.09 2.35 10.25 3.97 3.16 1.62 5.76 2.84 5.78 2.7 0.02-0.14-7.07-7.45-15.75-16.25-8.68-8.8-33.86-34.45-55.97-57-22.1-22.55-43.55-44.6-47.66-49l-7.48-8c13.43-1 53.78-1.34 98.33-1.4 55.48-0.08 82.89 0.24 87 1 3.3 0.61 8.14 2.18 10.75 3.5 2.61 1.32 6.62 4.09 8.9 6.15 2.28 2.06 5.27 5.55 6.65 7.75 1.38 2.2 3.34 6.48 4.37 9.5 1.12 3.3 1.86 8.3 1.85 12.5 0 3.85-0.73 9.48-1.63 12.5-0.9 3.03-3 7.98-4.68 11-2.2 3.98-12.9 15.36-38.63 41.13-19.57 19.6-35.58 35.98-35.58 36.4 0 0.42 15.98 17.14 35.5 37.15 19.52 20.01 35.73 36.37 36 36.36 0.27-0.01 20.15-19.71 44.17-43.78 24.02-24.07 45.87-46.46 48.55-49.76 2.69-3.3 6.65-8.7 8.82-12 2.17-3.3 5.86-9.82 8.21-14.5 2.35-4.67 5.59-12.55 7.2-17.5 1.61-4.95 3.74-12.82 4.74-17.5 1.36-6.39 1.8-12.84 1.79-26-0.02-12.9-0.5-19.73-1.81-26-0.99-4.67-2.93-12.1-4.32-16.5-1.39-4.4-5.41-13.85-8.93-21-3.52-7.15-9.27-16.82-12.78-21.5-3.51-4.67-10.62-12.55-15.8-17.5-5.18-4.95-13.22-11.53-17.88-14.61-4.65-3.09-11.61-7.2-15.46-9.13-3.85-1.93-11.27-5.11-16.5-7.06-5.23-1.95-14-4.58-19.5-5.84l-10-2.28-288.47-0.64z"/>
  <path fill="#7DD3FC" d="m954.5 458.79c-2.75 0.95-7.02 2.93-9.5 4.39-2.52 1.48-29.42 27.5-61.25 59.23l-56.75 56.59c-26.13-25.96-44.02-44.09-56.61-57.02-12.59-12.94-26.49-27.48-30.89-32.32-6.48-7.12-9.33-9.43-15-12.15-3.85-1.85-9.02-3.84-11.5-4.41-2.48-0.58-7.2-1.06-10.5-1.08-3.3-0.02-8.7 0.67-12 1.53-3.3 0.85-8.02 2.71-10.5 4.13-2.49 1.43-17.97 16-34.72 32.7l-30.23 30.12c11.13 11.62 26.76 27.61 41.91 43.03 15.15 15.42 33.82 34.54 41.49 42.5 7.67 7.96 21.17 21.89 30.01 30.97 8.83 9.08 25.7 26.4 37.48 38.5 11.78 12.1 30.68 31.4 41.99 42.89 13.03 13.24 23.14 22.6 27.57 25.55 3.85 2.55 10.6 5.92 15 7.47 7.37 2.6 9.66 2.88 29 3.63 11.55 0.45 40.58 0.82 64.5 0.82 23.92 0 47.02-0.31 51.33-0.68 6.18-0.54 8.12-1.1 9.26-2.68 0.8-1.1 1.44-3.24 1.43-4.75-0.02-1.99-1.87-4.75-6.71-10-3.68-3.99-21.81-22.77-40.29-41.75-18.48-18.98-42.42-43.73-53.21-55-10.79-11.27-20.67-21.81-21.96-23.4l-2.35-2.91c128.96-128.02 166.91-166.32 167.54-167.69 0.88-1.93 0.84-3.15-0.2-5.38-0.74-1.59-2.13-3.27-3.09-3.75-0.96-0.48-20.76-0.86-44-0.84-37.38 0.03-42.83 0.23-47.25 1.76z"/></g></svg>
